<svg xmlns="http://www.w3.org/2000/svg" version="1.1" xmlns:xlink="http://www.w3.org/1999/xlink" xmlns:svgjs="http://svgjs.com/svgjs" width="320" height="320"><svg viewBox="0 0 320 320" xmlns="http://www.w3.org/2000/svg">
  <path d="M 93.186 244.599 C 82.093 244.599 71.896 241.996 62.596 236.789 C 53.296 231.582 46.769 224.882 43.016 216.689 C 41.649 213.616 40.966 211.056 40.966 209.009 C 40.966 205.769 42.159 202.996 44.546 200.689 C 46.939 198.389 49.843 197.239 53.256 197.239 C 57.863 197.239 61.446 199.456 64.006 203.889 C 66.053 207.642 69.466 211.269 74.246 214.769 C 79.026 218.269 85.169 220.019 92.676 220.019 C 100.356 220.019 107.226 217.546 113.286 212.599 C 119.346 207.646 122.376 200.562 122.376 191.349 C 122.376 184.182 120.413 178.466 116.486 174.199 C 112.559 169.932 107.993 166.946 102.786 165.239 C 97.586 163.532 92.936 162.679 88.836 162.679 C 85.423 162.679 82.523 161.482 80.136 159.089 C 77.743 156.702 76.546 153.802 76.546 150.389 C 76.546 146.976 77.743 144.072 80.136 141.679 C 82.523 139.292 85.509 138.099 89.096 138.099 C 93.703 138.099 98.309 137.032 102.916 134.899 C 107.523 132.766 111.319 129.949 114.306 126.449 C 117.293 122.949 118.786 119.239 118.786 115.319 C 118.786 111.052 116.439 107.252 111.746 103.919 C 107.053 100.592 100.783 98.929 92.936 98.929 C 87.303 98.929 82.653 99.699 78.986 101.239 C 75.313 102.772 71.686 104.649 68.106 106.869 C 66.739 107.889 65.459 108.699 64.266 109.299 C 63.066 109.899 61.699 110.199 60.166 110.199 C 56.239 110.199 53.209 108.959 51.076 106.479 C 48.943 104.006 47.876 101.149 47.876 97.909 C 47.876 92.789 51.376 88.096 58.376 83.829 C 62.643 81.096 67.806 78.792 73.866 76.919 C 79.919 75.039 86.276 74.099 92.936 74.099 C 102.323 74.099 110.856 75.892 118.536 79.479 C 126.216 83.059 132.273 88.006 136.706 94.319 C 141.146 100.639 143.366 107.639 143.366 115.319 C 143.366 122.146 141.829 128.459 138.756 134.259 C 135.683 140.059 131.333 145.179 125.706 149.619 C 132.699 154.226 138.033 160.112 141.706 167.279 C 145.373 174.452 147.206 182.476 147.206 191.349 C 147.206 203.296 144.476 213.279 139.016 221.299 C 133.556 229.319 126.686 235.206 118.406 238.959 C 110.126 242.719 101.719 244.599 93.186 244.599 ZM 191.494 244.599 C 188.421 244.599 185.604 243.359 183.044 240.879 C 180.484 238.406 179.204 235.549 179.204 232.309 L 178.694 84.599 C 178.694 81.352 179.931 78.536 182.404 76.149 C 184.877 73.756 187.821 72.559 191.234 72.559 C 194.821 72.559 197.767 73.799 200.074 76.279 C 202.374 78.752 203.524 81.696 203.524 85.109 L 203.784 168.049 C 210.951 161.909 219.314 153.972 228.874 144.239 C 238.427 134.512 246.534 125.639 253.194 117.619 C 255.921 114.206 259.247 112.499 263.174 112.499 C 266.587 112.499 269.447 113.609 271.754 115.829 C 274.054 118.049 275.204 120.866 275.204 124.279 C 275.204 127.179 274.351 129.652 272.644 131.699 C 268.211 137.672 262.621 144.242 255.874 151.409 C 249.134 158.576 242.947 164.806 237.314 170.099 L 279.554 223.089 C 281.774 225.649 282.884 228.296 282.884 231.029 C 282.884 234.609 281.734 237.639 279.434 240.119 C 277.127 242.592 274.181 243.829 270.594 243.829 C 266.501 243.829 263.261 242.379 260.874 239.479 C 247.561 221.559 234.931 205.172 222.984 190.319 L 218.884 184.949 C 215.304 187.676 210.354 191.089 204.034 195.189 L 204.034 232.309 C 204.034 235.549 202.841 238.406 200.454 240.879 C 198.067 243.359 195.081 244.599 191.494 244.599 Z" transform="matrix(1, 0, 0, 1, 0, 0)" style="fill: rgb(185, 29, 71); white-space: pre;"></path>
</svg><style>@media (prefers-color-scheme: light) { :root { filter: none; } }
</style></svg>