<?xml version="1.0" standalone="no"?>
<!DOCTYPE svg PUBLIC "-//W3C//DTD SVG 20010904//EN"
 "http://www.w3.org/TR/2001/REC-SVG-20010904/DTD/svg10.dtd">
<svg version="1.0" xmlns="http://www.w3.org/2000/svg"
 width="400.000000pt" height="400.000000pt" viewBox="0 0 400.000000 400.000000"
 preserveAspectRatio="xMidYMid meet">
<metadata>
Created by potrace 1.14, written by Peter Selinger 2001-2017
</metadata>
<g transform="translate(0.000000,400.000000) scale(0.100000,-0.100000)"
fill="#000000" stroke="none">
<path d="M2598 3392 c-16 -2 -28 -9 -29 -15 0 -7 -2 -19 -4 -27 -9 -40 -34
-159 -38 -180 -3 -14 -12 -56 -21 -93 -9 -37 -18 -82 -21 -100 -2 -18 -13 -69
-24 -115 -10 -45 -20 -86 -20 -90 -1 -4 -4 -16 -6 -27 -3 -11 -7 -31 -9 -45
-3 -14 -12 -59 -21 -100 -9 -41 -17 -84 -19 -95 -1 -12 -6 -26 -10 -33 -4 -7
-5 -12 -2 -12 2 0 0 -15 -5 -32 -5 -18 -12 -46 -14 -63 -3 -16 -23 -113 -45
-215 -21 -102 -41 -196 -44 -210 -3 -14 -17 -79 -31 -145 -14 -66 -31 -145
-36 -175 -6 -30 -13 -62 -16 -70 -3 -8 -7 -24 -9 -35 -1 -11 -19 -96 -39 -190
-20 -93 -39 -181 -41 -194 -3 -14 -7 -28 -10 -33 -3 -4 16 -9 43 -9 84 -2 165
0 169 4 3 3 36 145 50 217 2 14 13 66 24 115 26 123 71 334 77 365 17 85 51
174 95 244 97 158 223 303 343 395 22 17 45 35 51 40 27 22 127 72 185 92 71
24 187 33 228 17 86 -34 103 -51 121 -115 22 -76 -4 -180 -66 -264 -93 -128
-263 -228 -479 -284 -38 -10 -74 -21 -78 -25 -4 -4 48 -121 116 -261 68 -140
154 -318 192 -396 61 -126 72 -143 95 -144 65 -3 193 0 198 5 3 3 -21 56 -53
118 -95 185 -205 398 -251 486 -24 45 -44 86 -44 92 0 9 9 14 132 68 157 71
306 197 374 319 20 35 37 69 38 76 2 6 6 19 9 27 13 31 24 121 22 172 -4 109
-52 206 -125 254 -83 55 -221 73 -354 44 -186 -39 -384 -173 -556 -375 -40
-47 -76 -85 -82 -85 -5 0 -7 3 -5 8 3 4 19 77 37 162 18 85 33 162 35 170 5
22 40 188 70 325 14 66 28 131 31 145 3 14 8 39 11 55 8 47 11 60 13 60 1 0 4
14 6 30 3 17 11 54 19 82 8 33 9 55 3 59 -10 7 -138 11 -180 6z"/>
<path d="M1315 2902 c-208 -20 -441 -135 -570 -281 -67 -76 -67 -80 -2 -155
l43 -49 85 84 c46 46 110 99 142 118 213 125 490 123 614 -5 99 -102 107 -273
20 -437 -31 -60 -125 -154 -181 -183 -66 -34 -174 -65 -244 -69 -41 -3 -78 -8
-83 -11 -5 -3 -9 -1 -9 3 0 5 -16 7 -35 5 -28 -3 -36 -9 -41 -31 -3 -14 -9
-35 -12 -46 -3 -11 -7 -26 -8 -34 -2 -8 -5 -25 -8 -37 -8 -31 6 -37 99 -41
134 -4 232 -41 303 -112 71 -72 100 -156 96 -287 -8 -307 -243 -517 -579 -516
-203 1 -343 75 -419 222 -17 35 -36 65 -42 67 -5 2 -19 -5 -29 -15 -11 -10
-38 -31 -60 -47 -72 -53 -77 -62 -59 -104 35 -84 91 -153 176 -216 25 -19 125
-64 151 -69 15 -2 30 -7 35 -9 47 -30 351 -27 452 4 166 51 283 117 380 212
68 68 77 79 118 146 71 115 101 230 100 381 -2 207 -80 341 -244 419 -59 29
-59 29 -29 36 91 23 207 90 279 161 59 59 122 163 152 250 22 66 27 97 27 185
0 107 -5 131 -47 219 -28 60 -119 151 -182 183 -95 48 -255 73 -389 59z"/>
</g>
</svg>
