<?xml version="1.0" standalone="no"?>
<!DOCTYPE svg PUBLIC "-//W3C//DTD SVG 20010904//EN"
 "http://www.w3.org/TR/2001/REC-SVG-20010904/DTD/svg10.dtd">
<svg version="1.0" xmlns="http://www.w3.org/2000/svg"
 width="700.000000pt" height="700.000000pt" viewBox="0 0 700.000000 700.000000"
 preserveAspectRatio="xMidYMid meet">
<metadata>
Created by potrace 1.14, written by Peter Selinger 2001-2017
</metadata>
<g transform="translate(0.000000,700.000000) scale(0.100000,-0.100000)"
fill="#000000" stroke="none">
<path d="M4086 5395 c-54 -19 -106 -63 -141 -120 l-30 -48 0 -1516 c0 -834 2
-1595 5 -1691 5 -167 6 -177 32 -220 118 -201 387 -197 484 7 l27 58 1 432 c1
237 3 433 6 436 3 2 61 42 130 88 69 47 140 95 157 109 18 13 34 22 36 19 35
-47 164 -212 237 -304 52 -66 107 -136 122 -155 15 -19 53 -69 86 -110 50 -65
249 -326 315 -414 12 -16 40 -53 62 -82 22 -30 54 -72 70 -95 128 -179 391
-157 477 39 24 52 31 140 16 185 -10 28 -62 113 -78 127 -3 3 -84 104 -180
225 -96 121 -181 227 -187 235 -189 233 -534 671 -533 677 1 4 97 105 213 224
266 270 374 390 514 569 79 102 88 123 88 216 0 71 -3 86 -28 123 -15 23 -41
54 -57 70 -40 38 -127 65 -188 58 -108 -12 -131 -27 -247 -162 -184 -213 -317
-356 -565 -604 -213 -214 -456 -441 -471 -441 -2 0 -5 420 -5 933 l-2 934 -22
52 c-27 62 -101 132 -158 149 -52 16 -138 15 -186 -3z"/>
<path d="M1909 5376 c-2 -2 -31 -7 -64 -10 -53 -6 -132 -21 -160 -30 -5 -1
-23 -6 -40 -11 -239 -60 -502 -222 -565 -345 -66 -130 -18 -296 105 -360 40
-20 64 -25 125 -25 74 0 77 1 159 54 114 73 272 147 355 166 134 31 339 24
466 -16 129 -41 235 -120 281 -210 25 -50 32 -142 15 -198 -59 -202 -319 -384
-576 -407 -123 -10 -144 -14 -184 -34 -77 -38 -115 -84 -140 -169 -28 -96 1
-199 76 -267 64 -57 93 -66 254 -78 39 -3 77 -8 85 -10 8 -3 25 -7 39 -10 80
-13 217 -71 285 -120 123 -89 194 -184 231 -311 21 -73 24 -255 5 -335 -46
-196 -200 -355 -415 -429 -63 -22 -89 -25 -221 -25 -160 -1 -213 9 -322 60
-100 47 -220 157 -296 272 -77 117 -154 163 -260 156 -99 -6 -204 -81 -237
-169 -49 -130 60 -374 239 -536 159 -145 375 -252 606 -301 134 -28 371 -33
500 -9 125 23 266 70 370 123 327 166 541 472 583 833 9 76 8 315 -1 375 -41
275 -192 533 -400 686 l-53 39 91 90 c184 182 282 395 289 628 6 201 -48 369
-169 526 -141 185 -396 336 -640 380 -33 6 -71 14 -85 17 -29 6 -325 15 -331
10z"/>
</g>
</svg>
